<svg xmlns="http://www.w3.org/2000/svg" xmlns:xlink="http://www.w3.org/1999/xlink" aria-hidden="true" role="img" class="iconify iconify--logos" width="35.93" height="32" preserveAspectRatio="xMidYMid meet" viewBox="0 0 256 228"><path fill="#00D8FF" d="M210.483 73.824a171.49 171.49 0 0 0-11.622-4.894c.465-1.91.908-3.777 1.329-5.601c6.238-27.013 2.16-48.275-11.769-56.709c-13.355-8.077-35.196-2.246-60.128 15.252a171.23 171.23 0 0 0-9.354 6.962a155.866 155.866 0 0 0-4.849-3.623C87.1 5.754 59.207-1.335 39.788 5.384C21.1 11.787 8.358 29.579 8.358 50.322c0 16.904 6.465 36.26 18.363 57.115c11.486 20.09 26.972 41.05 45.255 62.006c19.583 22.46 40.742 42.305 62.32 58.912c22.742 17.515 44.027 28.936 62.437 33.25c16.76 3.978 30.558 1.502 40.476-7.188c10.593-9.3 16.234-24.73 16.234-44.578c0-24.777-9.968-54.546-28.648-85.633a170.445 170.445 0 0 0-13.88-20.359Zm12.702 30.608a147.322 147.322 0 0 1 9.968 18.633c15.86 28.78 23.88 55.35 23.88 78.405c0 16.46-4.514 29.08-13.325 36.33c-8.388 6.9-20.24 8.852-33.98 5.31c-16.546-4.28-35.62-14.58-56.48-30.6c-19.88-15.3-39.64-33.78-58.38-54.857c-17.1-19.6-31.38-39.2-42.35-57.97c-10.58-18.12-17.8-35.01-21.18-49.78c-3.62-15.87-2.82-29.65 2.58-40.12c5.7-11.17 16.12-18.3 29.98-21.48c15.47-3.5 34.78.31 56.25 12.05a135.52 135.52 0 0 1 6.74 3.87c-1.16 1.01-2.3 2.04-3.42 3.1C58.4 70.95 38.8 100.9 38.8 125.55c0 33.9 27.5 61.4 61.4 61.4c33.91 0 61.41-27.5 61.41-61.4c0-24.65-19.6-54.6-44.88-73.36c-.28-1.38-.57-2.75-.88-4.12a147.27 147.27 0 0 1 10.12-4.26c22.16-8.3 42.78-12.4 60.12-11.12c15.78 1.15 28.58 7.88 36.48 18.2c8.28 10.85 10.58 26.2 6.78 44.8a147.62 147.62 0 0 1-3.78 15.97Z"></path></svg>

